<?xml version="1.0" ?><svg style="enable-background:new 0 0 48 48;" version="1.1" viewBox="0 0 48 48" xml:space="preserve" xmlns="http://www.w3.org/2000/svg" xmlns:xlink="http://www.w3.org/1999/xlink"><style type="text/css">
	.st0{display:none;}
	.st1{fill:none;stroke:#303030;stroke-width:0.7;stroke-linecap:round;stroke-linejoin:round;stroke-miterlimit:10;}
	.st2{fill:#303030;}
</style><g class="st0" id="Padding__x26__Artboard"/><g id="Icons"><g><g><path class="st1" d="M38.0146,26.50961v2.00887c0,0.43443-0.35217,0.7866-0.7866,0.7866h-2.2025     c-0.18153,0-0.32719-0.05559-0.47197-0.16942l-4.05676-3.07097c-0.11894-0.09004-0.28956-0.0052-0.28956,0.14397v3.65457     c0,1.11335-0.90762,2.00887-2.00887,2.00887H11.98217c-1.10125,0-1.99677-0.89552-1.99677-2.00887V18.13676     c0-1.11335,0.89552-2.00887,1.99677-2.00887h16.21617c1.10125,0,2.00887,0.89552,2.00887,2.00887v3.79881     c0,0.09959,0.1141,0.15604,0.19327,0.09562l4.15305-3.16981c0.13358-0.10754,0.29044-0.16942,0.47197-0.16942h2.2025     c0.43443,0,0.7866,0.35217,0.7866,0.78661v2.02097V26.50961z"/></g><circle class="st1" cx="20.09631" cy="23.99853" r="3.47774"/><line class="st1" x1="15.04865" x2="20.82049" y1="17.76154" y2="17.76154"/><line class="st1" x1="22.77547" x2="24.17189" y1="17.76154" y2="17.76154"/></g></g></svg>